# xmcd
#
# Track frame offsets: 
#        150
#        13918
#        26193
#        41344
#        53538
#        66552
#        78629
#        90758
#        101851
#        116350
#        129615
#        142721
#        154393
#        169147
#        182701
#        197462
#        211774
#        224611
#        235234
#        248612
#        262635
#        275241
#
# Disc length: 3877 seconds
#
# Revision: 1
# Processed by: cddbd v1.5.2PL0 Copyright (c) Steve Scherf et al.
# Submitted via: ExactAudioCopyFreeDBPlugin 1.0
#
DISCID=330f2316
DTITLE=Roy Eldridge - Swing Time 010 - Roy Eldridge 02 - 1939-45
DYEAR=2006
DGENRE=Jazz
TTITLE0=Roy Eldridge And His Orchestra - High Society
TTITLE1=Roy Eldridge And His Orchestra - Muskrat Ramble
TTITLE2=Roy Eldridge And His Orchestra - Who Told You I Cared
TTITLE3=Roy Eldridge And His Orchestra - Does Your Heart Beat For Me
TTITLE4=Roy Eldridge And His Orchestra - The Gasser
TTITLE5=Roy Eldridge And His Orchestra - Jump Through The Window
TTITLE6=Roy Eldridge And His Orchestra - Minor Jive
TTITLE7=Roy Eldridge And His Orchestra - Stardust
TTITLE8='Little Jazz' And His Trumpet Ensemble - Don't Be That Way
TTITLE9='Little Jazz' And His Trumpet Ensemble - I Want To Be Happy
TTITLE10='Little Jazz' And His Trumpet Ensemble - Fiesta In Brass
TTITLE11='Little Jazz' And His Trumpet Ensemble - St. Louis Blues
TTITLE12=Roy Eldridge And His Orchestra - Can't Get Started
TTITLE13=Roy Eldridge And His Orchestra - After You've Gone
TTITLE14=Roy Eldridge And His Orchestra - Body And Soul
TTITLE15=Roy Eldridge And His Orchestra - Fish Market
TTITLE16=Roy Eldridge And His Orchestra - Twilight Time
TTITLE17=Roy Eldridge And His Orchestra - St. Louis Blues
TTITLE18=Artie Shaw And His Gramercy Five - The Grabtown Grabble
TTITLE19=Artie Shaw And His Gramercy Five - The Sad Sack
TTITLE20=Roy Eldridge And His Orchestra - Little Jazz Boogie
TTITLE21=Roy Eldridge And His Orchestra - Embraceable You
EXTD=YEAR: 2006
EXTT0=
EXTT1=
EXTT2=
EXTT3=
EXTT4=
EXTT5=
EXTT6=
EXTT7=
EXTT8=
EXTT9=
EXTT10=
EXTT11=
EXTT12=
EXTT13=
EXTT14=
EXTT15=
EXTT16=
EXTT17=
EXTT18=
EXTT19=
EXTT20=
EXTT21=
PLAYORDER=
